<?xml version="1.0" encoding="utf-8"?>
<!-- Generator: Adobe Illustrator 15.1.0, SVG Export Plug-In . SVG Version: 6.00 Build 0)  -->
<!DOCTYPE svg PUBLIC "-//W3C//DTD SVG 1.1//EN" "http://www.w3.org/Graphics/SVG/1.1/DTD/svg11.dtd">
<svg version="1.1" id="Layer_1" xmlns="http://www.w3.org/2000/svg" xmlns:xlink="http://www.w3.org/1999/xlink" x="0px" y="0px"
	 width="86.314px" height="100px" viewBox="0 0 86.314 100" enable-background="new 0 0 86.314 100" xml:space="preserve">
<path fill="#010101" d="M21.053,24.21h44.21v6.316h-44.21V24.21L21.053,24.21z"/>
<path fill="#010101" d="M21.053,46.316h44.21v6.315h-44.21V46.316L21.053,46.316z"/>
<path fill="#010101" d="M21.053,67.368h44.21v6.315h-44.21V67.368L21.053,67.368z"/>
<path fill="#010101" d="M82.106,0H4.21C1.578,0,0,1.578,0,4.21v91.58C0,98.422,1.578,100,4.209,100h77.896
	c2.632,0,4.209-1.578,4.209-4.21V4.21C86.316,1.578,84.738,0,82.106,0z M80,91.579c0,1.315-0.789,2.104-2.105,2.104H8.421
	c-1.316,0-2.105-0.789-2.105-2.104V8.421c0-1.316,0.789-2.106,2.105-2.106h69.473c1.316,0,2.105,0.79,2.105,2.106V91.579z"/>
</svg>
