<svg xmlns="http://www.w3.org/2000/svg" xmlns:xlink="http://www.w3.org/1999/xlink" version="1.1" id="Layer_1" x="0px" y="0px" width="100px" height="100px" viewBox="0 0 100 100" enable-background="new 0 0 100 100" xml:space="preserve">
<path d="M93.794,45.797c-0.276-2.015-1.833-3.666-3.849-3.939c-2.475-0.273-7.514-0.918-7.514-0.918  c-2.199-0.547-3.85-2.474-3.85-4.854c0-0.915,0.275-1.833,0.827-2.565c0-0.091,4.581-6.046,4.581-6.046  c1.281-1.556,1.188-3.848-0.092-5.405c-1.741-2.2-3.758-4.216-5.959-5.958c-1.556-1.283-3.848-1.374-5.403-0.091  c-2.017,1.557-5.955,4.584-5.955,4.584c-0.824,0.456-1.741,0.821-2.748,0.821c-2.383,0-4.308-1.739-4.767-4.031l-0.914-7.329  c-0.274-2.016-1.926-3.572-3.94-3.846c-2.838-0.276-5.679-0.276-8.427,0c-2.016,0.273-3.666,1.83-3.94,3.846l-0.915,7.329  c-0.368,2.292-2.383,4.031-4.766,4.031c-1.097,0-2.106-0.365-2.93-0.915l-5.772-4.49c-1.557-1.283-3.849-1.191-5.405,0.091  c-2.201,1.742-4.216,3.757-5.958,5.958c-1.374,1.557-1.374,3.849-0.091,5.405c1.468,1.924,4.398,5.772,4.398,5.772  c0.641,0.824,1.009,1.833,1.009,2.839c0,2.475-1.833,4.49-4.216,4.854l-7.146,0.918c-2.016,0.274-3.663,1.924-3.848,3.939  c-0.274,2.839-0.274,5.682,0,8.43c0.276,2.016,1.833,3.666,3.848,3.939l7.146,0.915c2.383,0.276,4.216,2.292,4.216,4.767  c0,1.098-0.368,2.106-1.009,2.93l-4.398,5.772c-1.283,1.56-1.192,3.849,0.091,5.405c1.741,2.199,3.757,4.216,5.958,5.957  c0.824,0.643,1.739,1.007,2.748,1.007c0.915,0,1.924-0.274,2.657-0.915l5.772-4.49c0.824-0.55,1.833-0.918,2.93-0.918  c2.383,0,4.398,1.742,4.766,4.034c0,0.091,0.915,7.329,0.915,7.329c0.274,2.016,1.924,3.57,3.94,3.848  c1.374,0.092,2.839,0.184,4.216,0.184c1.374,0,2.838-0.092,4.211-0.184c2.017-0.275,3.666-1.832,3.94-3.848l0.914-7.329  c0.459-2.292,2.384-4.034,4.767-4.034c1.007,0,2.017,0.277,2.748,0.827l5.955,4.581c0.731,0.641,1.741,0.915,2.655,0.915  c1.011,0,1.926-0.274,2.748-1.007c2.201-1.741,4.218-3.757,5.959-5.957c1.279-1.557,1.373-3.846,0.092-5.405  c-1.561-2.016-4.581-5.954-4.581-6.046c-0.552-0.732-0.827-1.65-0.827-2.656c0-2.291,1.65-4.308,3.85-4.767  c0,0,5.039-0.642,7.514-0.915c2.016-0.273,3.572-1.925,3.849-3.939C94.066,51.385,94.066,48.545,93.794,45.797z M50.001,64.943  c-8.247,0-14.934-6.688-14.934-14.934c0-8.244,6.688-14.932,14.934-14.932c8.243,0,14.931,6.688,14.931,14.932  C64.932,58.257,58.244,64.943,50.001,64.943z"/>
</svg>