<svg xmlns="http://www.w3.org/2000/svg" xmlns:xlink="http://www.w3.org/1999/xlink" version="1.1" id="&#1057;&#1083;&#1086;&#1081;_1" x="0px" y="0px" width="100px" height="100px" viewBox="0 0 100 100" enable-background="new 0 0 100 100" xml:space="preserve">
<polygon points="94.5,95.146 89,95.146 89,96.146 95.5,96.146 95.5,89.646 94.5,89.646 "/>
<rect x="66.715" y="95.146" width="11.143" height="1"/>
<rect x="44.429" y="95.146" width="11.143" height="1"/>
<rect x="22.144" y="95.146" width="11.143" height="1"/>
<polygon points="5.5,89.646 4.5,89.646 4.5,96.146 11,96.146 11,95.146 5.5,95.146 "/>
<rect x="4.5" y="45.074" width="1" height="11.143"/>
<rect x="4.5" y="22.789" width="1" height="11.143"/>
<rect x="4.5" y="67.36" width="1" height="11.143"/>
<polygon points="4.5,11.646 5.5,11.646 5.5,6.146 11,6.146 11,5.146 4.5,5.146 "/>
<rect x="44.429" y="5.146" width="11.143" height="1"/>
<rect x="66.714" y="5.146" width="11.143" height="1"/>
<rect x="22.143" y="5.146" width="11.143" height="1"/>
<polygon points="89,6.146 94.5,6.146 94.5,11.646 95.5,11.646 95.5,5.146 89,5.146 "/>
<rect x="94.5" y="45.074" width="1" height="11.143"/>
<rect x="94.5" y="67.36" width="1" height="11.143"/>
<rect x="94.5" y="22.789" width="1" height="11.143"/>
</svg>